<svg width="800" height="800" viewBox="-12 -12 48 48" fill="none" xmlns="http://www.w3.org/2000/svg" transform="rotate(90)"><rect x="-12" y="-12" width="48" height="48" rx="24" fill="#005187" stroke-width="0"/><g stroke="#fff" stroke-width="1.5" stroke-linecap="round"><path d="M15.197 3.355c1.673-1.68 4.25-1.816 5.757-.305 1.506 1.512 1.37 4.1-.303 5.78l-2.424 2.433M10.047 14c-1.507-1.512-1.37-4.1.302-5.779L12.5 6.062"/><path d="M13.954 10c1.506 1.512 1.37 4.1-.303 5.779l-2.424 2.433-2.424 2.433c-1.673 1.68-4.25 1.816-5.757.305-1.506-1.512-1.37-4.1.303-5.78l2.424-2.433"/></g></svg>